<svg xmlns="http://www.w3.org/2000/svg" xmlns:xlink="http://www.w3.org/1999/xlink" width="400" height="400" viewBox="0 0 400 400">
  <defs>
    <clipPath id="clip-icon">
      <rect width="400" height="400"/>
    </clipPath>
  </defs>
  <g id="icon" clip-path="url(#clip-icon)">
    <rect width="400" height="400" fill="#fff"/>
    <g id="Сгруппировать_535" data-name="Сгруппировать 535" transform="translate(-119.895 36)">
      <g id="Сгруппировать_534" data-name="Сгруппировать 534" transform="translate(147 24)">
        <g id="Прямоугольник_290" data-name="Прямоугольник 290" fill="#fff" stroke="#cc870b" stroke-width="16">
          <rect width="280" height="280" stroke="none"/>
          <rect x="8" y="8" width="264" height="264" fill="none"/>
        </g>
      </g>
      <g id="Сгруппировать_533" data-name="Сгруппировать 533" transform="translate(169.951 85.768)">
        <path id="Контур_1" data-name="Контур 1" d="M2228.276,100c0,1.29.181,1.844,1.106,1.844,2.4,0,25.142,0,29.391-.363,4.435-.373,7.022-.745,8.684-2.589,1.29-1.481,2.038-2.408,2.772-2.408.556,0,.929.373.929,1.481,0,.745-2.22,13.128-2.22,22.186,0,2.026-.19,3.507-1.3,3.507-.917,0-1.29-.736-1.29-1.662a18.734,18.734,0,0,0-.744-6.1c-.736-2.589-2.4-5.733-9.6-6.468-5-.564-23.3-.927-26.437-.927a1.167,1.167,0,0,0-1.289,1.29v47.878c0,12.192,3.324,15.154,21.439,15.154,4.809,0,12.936,0,17.742-2.035s7.023-5.733,8.324-13.309c.364-2.035.734-2.771,1.663-2.771,1.109,0,1.109,1.481,1.109,2.771a180.7,180.7,0,0,1-2.408,17.934c-1.291,4.806-2.771,4.806-9.989,4.806-27.906,0-40.287-1.108-45.648-1.108-4.809,0-14.045.554-18.115.554-2.027,0-2.954-.373-2.954-1.481,0-.554.373-1.108,1.482-1.108a19.4,19.4,0,0,0,5.541-.736c2.95-.927,3.879-2.589,4.987-7.949.925-4.806,1.3-19.778,1.3-42.327V93.528c0-31.052-.191-38.82-.555-41.964-.552-4.433-1.659-7.2-7.766-8.494a34.24,34.24,0,0,0-6.288-.554c-.736,0-1.471-.373-1.471-1.108,0-1.118.916-1.481,2.953-1.481,8.325,0,19.971.554,20.887.554,19.968,0,38.819-.191,41.771-.373s7.4-.554,8.133-.736c1.106-.373,1.854-1.108,2.589-1.108s1.106,1.108,1.106,2.026c0,1.3-.917,3.516-1.467,8.695-.191,1.844-.563,9.975-.93,12.2-.191.917-.552,1.844-1.48,1.844s-1.292-.745-1.292-2.035a19.767,19.767,0,0,0-1.668-7.023c-1.113-2.408-5.544-6.1-16.447-6.1-1.107,0-17.742-.554-21.439-.554-.733,0-1.106.363-1.106,1.662Z" transform="translate(-2196.668 -38.264)"/>
        <path id="Контур_2" data-name="Контур 2" d="M2255.159,175.585a64.846,64.846,0,0,1-7.2-.736c-5.552-.745-6.659-4.806-7.214-10.176-.916-7.758-.916-22.358-.916-40.1V106.457h.916c5.951,7.319,25.542,28.759,40.312,44.161a28.284,28.284,0,0,1,5.2-8.207,22.922,22.922,0,0,1,4.511-3.8c-14.19-14.418-33.911-34.884-37.265-38.62,3.877-4.624,36.039-36.05,40.666-40.483,8.309-7.949,12.382-12.564,19.956-15.9a27.363,27.363,0,0,1,10.358-2.58c1.473,0,1.845-.373,1.845-1.3s-.734-1.29-2.771-1.29c-4.622,0-16.823.554-17.742.554-4.443,0-10.167-.554-13.863-.554-1.3,0-2.218.363-2.218,1.29,0,.736.737,1.108,1.663,1.481,1.481.554,2.4,1.662,2.4,3.879,0,3.143-4.8,7.949-9.974,13.31-6.66,7.214-40.111,41.219-43.257,44.735h-.731V92.039c0-28.836,0-34.014.361-39.929.37-6.468,1.844-9.612,6.838-10.529a27.2,27.2,0,0,1,4.627-.554c.736,0,1.47-.373,1.47-1.108,0-1.118-.917-1.481-2.948-1.481-5.553,0-16.275.554-17.935.554-1.111,0-12.013-.554-20.333-.554-2.027,0-2.951.363-2.951,1.481,0,.736.734,1.108,1.468,1.108a34.194,34.194,0,0,1,6.288.554c6.105,1.29,7.577,4.252,7.95,10.529.372,5.914.372,11.093.372,39.929v32.533c0,17.743,0,32.342-.925,40.1-.736,5.37-1.664,9.43-5.362,10.176a29.016,29.016,0,0,1-5.542.736c-1.106,0-1.479.554-1.479,1.108,0,1.108.927,1.481,2.951,1.481,5.55,0,16.271-.554,17.753-.554s12.191.554,21.249.554c2.037,0,2.962-.554,2.962-1.481C2256.641,176.139,2256.268,175.585,2255.159,175.585Z" transform="translate(-2091.566 -36.775)"/>
        <path id="Контур_17" data-name="Контур 17" d="M2316.269,139.919l-90.33-95.1-5.59.019-8.206,7.386,87.032,91.476c39.8,41.973,73.2,37.588,87.959,34.177l-.009-2.236C2359.694,175.768,2334.175,158.933,2316.269,139.919Z" transform="translate(-2064.294 17.837)"/>
      </g>
    </g>
  </g>
</svg>
