<svg xmlns="http://www.w3.org/2000/svg" width="43.624" height="57.378" viewBox="0 0 43.624 57.378">
  <path id="Контур_146" data-name="Контур 146" d="M6678.146,3674.484l24.038,0,.062,0a.705.705,0,0,1,.526.239l14.6,14.617a.7.7,0,0,1,.242.525l0,.06-.016,37.777a4.166,4.166,0,0,1-4.153,4.157h-35.3v-.006a4.151,4.151,0,0,1-4.151-4.151h0v-49.064a4.16,4.16,0,0,1,4.153-4.154v0h0v0Zm3.171,37.981h21.513a.855.855,0,0,0,0-1.689h-21.513a.855.855,0,0,0,0,1.689Zm0,5.094h14.266a.855.855,0,0,0,0-1.689h-14.266a.855.855,0,0,0,0,1.689Zm25.7-.813a4.139,4.139,0,0,0-2.931,1.214l-.035.033a4.15,4.15,0,0,0,5.9,5.837v-.005a4.153,4.153,0,0,0,0-5.865l0,0a4.134,4.134,0,0,0-2.934-1.211Zm-3.911.233-.038.042a5.531,5.531,0,0,0,7.861,7.782l0,0a5.528,5.528,0,0,0,0-7.82l0,0v0h0a5.532,5.532,0,0,0-7.823,0Zm13.12-26.422h-10.519a4.14,4.14,0,0,1-2.936-1.22h0l0-.008a4.15,4.15,0,0,1-1.213-2.929v-10.535h-23.408v0h0v0a2.777,2.777,0,0,0-2.768,2.773V3727.7h0a2.781,2.781,0,0,0,2.77,2.773v-.006h35.3a2.774,2.774,0,0,0,2.772-2.767l.016-37.145Zm-13.292-13.712v9.555a2.762,2.762,0,0,0,.812,1.96h0a2.757,2.757,0,0,0,1.958.811h9.542Z" transform="translate(-6673.99 -3674.481)" fill="#cc870b" fill-rule="evenodd"/>
</svg>
